inDegrees=no
num_controls=7
num_derivatives=13
num_iterations=147
num_multipliers=7
num_parameters=0
num_slacks=7
num_states=26
objective=0.448398
objective_accelerations=0.048591
objective_balance=0.007373
objective_effort=0.036175
objective_height=0.351319
objective_ligament=0.004940
solver_duration=2108.166435
status=Solve_Succeeded
success=true
DataType=double
version=3
OpenSimVersion=4.5
endheader
time	/jointset/ground_pelvis/pelvis_tilt/value	/jointset/ground_pelvis/pelvis_tx/value	/jointset/ground_pelvis/pelvis_ty/value	/jointset/hip_l/hip_flexion_l/value	/jointset/hip_l/hip_adduction_l/value	/jointset/hip_l/hip_rotation_l/value	/jointset/back/lumbar_extension/value	/jointset/patellofemoral_l/patellar_flexion_l/value	/jointset/knee_l/knee_flexion_l/value	/jointset/knee_l/knee_adduction_l/value	/jointset/knee_l/knee_rotation_l/value	/jointset/ankle_l/ankle_angle_l/value	/jointset/subtalar_l/subtalar_angle_l/value	/jointset/ground_pelvis/pelvis_tilt/speed	/jointset/ground_pelvis/pelvis_tx/speed	/jointset/ground_pelvis/pelvis_ty/speed	/jointset/hip_l/hip_flexion_l/speed	/jointset/hip_l/hip_adduction_l/speed	/jointset/hip_l/hip_rotation_l/speed	/jointset/back/lumbar_extension/speed	/jointset/patellofemoral_l/patellar_flexion_l/speed	/jointset/knee_l/knee_flexion_l/speed	/jointset/knee_l/knee_adduction_l/speed	/jointset/knee_l/knee_rotation_l/speed	/jointset/ankle_l/ankle_angle_l/speed	/jointset/subtalar_l/subtalar_angle_l/speed	/forceset/tau_hip_flexion_l	/forceset/tau_hip_adduction_l	/forceset/tau_hip_rotation_l	/forceset/tau_knee_flexion_l	/forceset/tau_ankle_angle_l	/forceset/tau_subtalar_angle_l	/forceset/tau_lumbar_extension	lambda_cid13_p0	lambda_cid13_p1	lambda_cid13_p2	lambda_cid13_p3	lambda_cid13_p4	lambda_cid13_p5	lambda_cid14_p0	/jointset/ground_pelvis/pelvis_tilt/accel	/jointset/ground_pelvis/pelvis_tx/accel	/jointset/ground_pelvis/pelvis_ty/accel	/jointset/hip_l/hip_flexion_l/accel	/jointset/hip_l/hip_adduction_l/accel	/jointset/hip_l/hip_rotation_l/accel	/jointset/back/lumbar_extension/accel	/jointset/patellofemoral_l/patellar_flexion_l/accel	/jointset/knee_l/knee_flexion_l/accel	/jointset/knee_l/knee_adduction_l/accel	/jointset/knee_l/knee_rotation_l/accel	/jointset/ankle_l/ankle_angle_l/accel	/jointset/subtalar_l/subtalar_angle_l/accel	gamma_cid13_p0	gamma_cid13_p1	gamma_cid13_p2	gamma_cid13_p3	gamma_cid13_p4	gamma_cid13_p5	gamma_cid14_p0
1	-0.651422851857692	-0.1267046588911131	0.5999641963282957	1.939220108488413	-0.2958822272201677	0.1349202080895161	-0.43633206316604	1.194132915888933	1.194132915888551	-0.1745316148351799	0.1745325938728229	0.1017625269693337	-0.02719339810008853	-0.01101810636101235	0.0006394917496624951	-0.003108429809057407	0.01651191036323355	0.0006512170946340497	0.002923476523637407	-2.696306596991654e-05	0.00765137006583624	0.007651370065836572	9.619379216086074e-07	-4.738347143932111e-06	0.002717652699774218	0.001190887424378823	-0.4397211729571409	0.00402292390848604	-0.01819978032929438	-0.2500306241110837	0.1302541638801161	0.0302266838712991	0.3539493282007227	-4.484552362237871	-12.33355993132962	1.553977438996752	8.507452501110897	-728.6224125704348	-45.20616939534595	-0.91418591591801	1.875776700983105	0.2602180376903909	1.692851086055242	-6.307123245089331	-0.3753849043964181	-1.728968150703662	-0.01362642673651696	-4.691580243426389	-4.691580243426194	-0.04284643293475446	0.01312208941270949	-0.5406154449899881	-0.4659765102681234	6.678636185147982e-10	2.697549236501284e-09	-5.06283397332376e-09	-1.693541727485196e-10	1.093397170881624e-09	-1.721210673151989e-09	1.13421784532503e-09
1.01	-0.6514398985974622	-0.1266853034571507	0.6000176333166697	1.939070783960608	-0.295893611913907	0.1348621077872768	-0.436332237242994	1.193975134552921	1.193975134552825	-0.1745316106332501	0.1745325509449999	0.1017628926235529	-0.02720378630046817	0.00761338286514678	0.00323324230599756	0.01379298356942946	-0.04637427814499918	-0.002925897837511329	-0.01454059137852592	-8.231156389856434e-06	-0.03920071984219611	-0.03920071984219437	6.861744605738017e-08	-3.329077206333462e-06	-0.002644543023923178	-0.003266030832764323	-0.4396502979364751	0.004049303667572438	-0.01820582816291088	-0.2499326432114094	0.1302036185289337	0.0302751543724424	0.3539102643747737	-4.490162023188346	-12.35571921876103	1.559898345409317	8.476554416834466	-728.4958174485279	-45.24091722470146	-0.9173000540199051	1.857528348650166	0.2592010243926568	1.688358894305227	-6.278986452633284	-0.348538520886345	-1.754688414617815	0.009566175268382229	-4.680984748017899	-4.680984748017868	0.0213159392174219	-0.006277423221166881	-0.5340244739757207	-0.4351767843745049	-2.72692092805819e-09	-5.588841126186887e-09	2.254820521836672e-08	1.831334940126615e-09	-4.851317421353779e-09	1.984202727087713e-08	-4.951487982001052e-09
1.02	-0.6512704917819274	-0.1266399610256675	0.6002399989249407	1.938292673587932	-0.2959407005036203	0.1346294543450867	-0.4363322353657688	1.193349040041125	1.193349040041315	-0.1745316100203614	0.174532536556077	0.1017096357529519	-0.02725866914360667	0.02627260470001945	0.005836891253836394	0.03067729417030645	-0.1092452586109543	-0.006489562100166659	-0.03198715146649537	8.227771714333451e-06	-0.08601126509127854	-0.08601126509127867	2.441298256203076e-07	9.694325131903104e-07	-0.008006852264264902	-0.007708041127391345	-0.4395794229158123	0.00407568342665854	-0.01821187599652544	-0.2498346623117347	0.1301530731777518	0.03032362487358548	0.3538712005488216	-4.502130794270786	-12.37666157628173	1.565507104058739	8.466845821482543	-728.4534754558151	-45.24306975595385	-0.929665355110686	1.881323222725813	0.2621977159911446	1.689430530533267	-6.304081636633811	-0.3726947704984078	-1.725466587864888	-0.01408102303167047	-4.683271311636406	-4.683271311636865	-0.04263266636373104	0.01369993736909433	-0.5406381483188535	-0.462994917764898	-6.254854819054727e-09	-1.385694956670428e-08	4.937224078986048e-08	4.184112030661698e-09	-1.085492580502292e-08	4.057970620148624e-08	-1.089361747624668e-08
1.03	-0.6509144041207297	-0.126568522074241	0.6006310564741217	1.936886100066188	-0.2960233131971302	0.1342224793807429	-0.436332112103907	1.192255092011959	1.192255092012282	-0.1745316227971351	0.1745325709199362	0.10160267589441	-0.02735786177030486	0.0449442961253057	0.008453551496343756	0.04752481273730703	-0.1720495893005465	-0.01002524510439269	-0.04940069211732737	1.31412185560812e-05	-0.1327668751201774	-0.1327668751201792	-1.934183473883708e-06	5.006907007975045e-06	-0.01339275013876696	-0.01212331115970441	-0.4390466362223099	0.004161697598072601	-0.01824651125871707	-0.2497437773799644	0.1302805902304125	0.03040745216874427	0.3535295000571645	-4.434135911301381	-12.4303306964801	1.58018296119516	8.382855202185937	-728.0652798146358	-45.3002707018771	-0.951519128803884	1.859996172519065	0.2617993704892802	1.680998672279717	-6.265631927681178	-0.3428537787361617	-1.748239462897187	0.007285021125233366	-4.669982602417379	-4.669982602417357	0.02111317836591045	-0.006397236151815642	-0.5387092376075393	-0.4297226393399146	-9.784147376831097e-09	-2.212487145699545e-08	7.618824571216856e-08	6.540481855662701e-09	-1.685913514574751e-08	6.130896106052985e-08	-1.683428190586904e-08
1.04	-0.6503716187312613	-0.1264708366819676	0.6011903064394719	1.934852078609036	-0.2961410524633526	0.1336415806780496	-0.4363320382090599	1.190693932531725	1.190693932532181	-0.1745316326386065	0.1745326150808123	0.1014416283310047	-0.02750099301600125	0.06361215035415295	0.01108617942320127	0.0643157774041558	-0.2347348456925098	-0.01351487664267719	-0.06677189913635281	-1.645631277631726e-06	-0.1794535553051069	-0.1794535553051086	8.311903853793089e-07	2.928835843346634e-06	-0.01882439323693543	-0.01649576492703376	-0.4385138495288093	0.004247711769486273	-0.01828114652090732	-0.2496528924481941	0.1304081072830734	0.03049127946390268	0.3531877995655057	-4.372503052192339	-12.4828283684162	1.594606451748821	8.319877417709257	-727.7613229036555	-45.32549366661177	-0.9831676834065293	1.880555783438012	0.2653912528611755	1.678119750502906	-6.28026677710805	-0.3634844773101025	-1.71699986150358	-0.01802108236679806	-4.669485342842534	-4.669485342842655	-0.04164392893197855	0.01247682823721499	-0.5497871930521352	-0.4544316647681587	-1.297039838528629e-08	-3.009128084264048e-08	1.015749756702231e-07	8.263080414841025e-09	-2.234555374285293e-08	8.089561891960775e-08	-2.252243137501995e-08
1.05	-0.6496421585561354	-0.1263467112603093	0.601917111394403	1.932191936324387	-0.2962934251164023	0.1328872753141265	-0.4363321340581774	1.18866638861739	1.188666388617434	-0.1745316422364839	0.1745326286206046	0.1012260222133217	-0.02768760038897401	0.08228007223359272	0.01374485240262091	0.08102859403349486	-0.297259427969662	-0.01694689817940113	-0.08407599703804189	-1.234197620068358e-05	-0.2260297326560118	-0.2260297326560139	-1.508025654445914e-06	-4.604046329046284e-08	-0.02430518847289688	-0.02081302969689492	-0.4376911680229669	0.00439094859055337	-0.01833685991648567	-0.2494558277134135	0.1305986613673163	0.03064546203744565	0.3526899320915292	-4.268755166275688	-12.5773129423723	1.620358447215661	8.17752292950375	-727.1641869525401	-45.4141526217983	-1.02514638221503	1.85993644617136	0.2669994549835461	1.665364068452745	-6.233429182253888	-0.3311616671602426	-1.735161768594507	0.008183421815055989	-4.647853997436595	-4.647853997436562	0.02064710618218193	-0.006689069903810133	-0.5484777884000933	-0.4184809449734202	-1.614592934532519e-08	-3.804826796251531e-08	1.269170407856447e-07	9.965873621962394e-09	-2.781579137922025e-08	1.004465706224367e-07	-2.820268975165613e-08
1.06	-0.6487260139510203	-0.1261958202819566	0.6028105448054881	1.928907573171119	-0.2964797381198804	0.1319603195683675	-0.4363321814042743	1.186173848916303	1.186173848915932	-0.1745316400216968	0.1745326115267652	0.1009553577233727	-0.02791700182202104	0.1009490363520085	0.0164392907620883	0.09764146863496635	-0.3595790194162179	-0.02030294672839315	-0.1013019755034486	8.054973680342297e-06	-0.2724527126558021	-0.2724527126558038	3.193723192389161e-06	-3.197890338188222e-06	-0.02983606769013623	-0.02505457694188923	-0.4368684865171243	0.004534185411620055	-0.01839257331206349	-0.2492587629786331	0.1307892154515591	0.03079964461098813	0.3521920646175529	-4.171378721340019	-12.67071212985089	1.645971977852509	8.055826847748371	-726.6512931323913	-45.4720658740457	-1.078060215371237	1.88076423123321	0.2725443288707244	1.658131344929397	-6.23926861098881	-0.3482898797637201	-1.701375974247106	-0.01180242340601686	-4.638845872619602	-4.638845872619584	-0.04023573595464589	0.01244143352356517	-0.559803989307713	-0.4392881597947899	-1.898754430390379e-08	-4.549331259164228e-08	1.493364332753972e-07	1.128140247791745e-08	-3.270939892456656e-08	1.170030053033145e-07	-3.321314285014503e-08
1.07	-0.6476231234163751	-0.1260177921756582	0.6038695410758135	1.925001137744461	-0.2966992134802174	0.1308615871105712	-0.4363320482653998	1.183217941533321	1.183217941533146	-0.174531634277576	0.1745325871486218	0.1006290756783338	-0.02818843108102687	0.1196333187073313	0.01917351629362319	0.1141344774538384	-0.421662909646958	-0.02357447173389225	-0.1184265401805359	7.022788175656951e-06	-0.3186931375811154	-0.3186931375811171	-1.27487628039551e-07	-1.397739827403642e-06	-0.03543344055063218	-0.02921405181277569	-0.4355391271312786	0.004713642964696778	-0.01847420933855433	-0.2490616732837338	0.1311495209259901	0.03099792610244362	0.3513463610023555	-3.993648122212015	-12.80108403917623	1.681764599126038	7.862879828817064	-725.7442059803531	-45.59523758057307	-1.142740557453038	1.862894577543922	0.2749420682759166	1.641381870686685	-6.186179531090742	-0.3139546836434168	-1.715332243463074	0.004013881316474034	-4.611289140626249	-4.611289140626241	0.01989323026692661	-0.005950056677316428	-0.5616666387118494	-0.4017056939904028	-2.181139777304301e-08	-5.291112623721883e-08	1.716003644552738e-07	1.257633216625727e-08	-3.75723346565607e-08	1.334001571638757e-07	-3.818796800830696e-08
1.08	-0.6463332631902043	-0.1258122057334482	0.6050927666783918	1.920475217355101	-0.2969508782651495	0.1295921419001994	-0.4363322719488495	1.179800700233458	1.179800700233479	-0.1745316070367805	0.1745325808994809	0.1002464273638318	-0.02850094079739253	0.1383429746571383	0.02195095794439977	0.1304873350855338	-0.4834760119566636	-0.02674083164740514	-0.1354445260185644	-6.33094997620246e-05	-0.3647194960319911	-0.3647194960319924	7.493058062254048e-06	4.279109972795719e-07	-0.04110932158278082	-0.03327066841385534	-0.4342097677454316	0.004893100517773976	-0.01855584536504751	-0.2488645835888345	0.131509826400421	0.03119620759389963	0.3505006573871594	-3.822272414468792	-12.93052385221957	1.717614968298545	7.689888046754378	-724.9210138645047	-45.68962572528249	-1.220091112224212	1.885838950130053	0.2811875527190599	1.630101107494062	-6.185111026781916	-0.3272568613664764	-1.680060206435343	-0.02566244389260133	-4.596032577732084	-4.596032577731998	-0.03804738465249736	0.0124465335863392	-0.5755056236382532	-0.4187165058334251	-2.5803945827724e-08	-6.191479945991862e-08	1.891441325949119e-07	1.594098495691478e-08	-4.30414756352171e-08	1.472338834988771e-07	-4.27108604006786e-08
